<mxfile host="app.diagrams.net" modified="2023-12-05T07:22:58.683Z" agent="Mozilla/5.0 (Windows NT 10.0; Win64; x64) AppleWebKit/537.36 (KHTML, like Gecko) Chrome/119.0.0.0 Safari/537.36 Edg/119.0.0.0" etag="wfUIxZfT8INIFkRNHXcC" version="22.1.5" type="google">
  <diagram name="Page-1" id="7jebK_ja5hXWkpr40mlU">
    <mxGraphModel grid="1" page="1" gridSize="10" guides="1" tooltips="1" connect="1" arrows="1" fold="1" pageScale="1" pageWidth="850" pageHeight="1100" math="0" shadow="0">
      <root>
        <mxCell id="0" />
        <mxCell id="1" parent="0" />
        <mxCell id="csRdMIbpgOP2QXGig-NB-2" value="Mulai" style="rounded=1;whiteSpace=wrap;html=1;fontFamily=Times New Roman;" vertex="1" parent="1">
          <mxGeometry x="190" y="50" width="120" height="60" as="geometry" />
        </mxCell>
        <mxCell id="csRdMIbpgOP2QXGig-NB-3" value="" style="endArrow=classic;html=1;rounded=0;exitX=0.5;exitY=1;exitDx=0;exitDy=0;fontFamily=Times New Roman;" edge="1" parent="1" source="csRdMIbpgOP2QXGig-NB-2">
          <mxGeometry width="50" height="50" relative="1" as="geometry">
            <mxPoint x="290" y="190" as="sourcePoint" />
            <mxPoint x="250" y="160" as="targetPoint" />
          </mxGeometry>
        </mxCell>
        <mxCell id="csRdMIbpgOP2QXGig-NB-59" style="edgeStyle=orthogonalEdgeStyle;rounded=0;orthogonalLoop=1;jettySize=auto;html=1;entryX=0.5;entryY=0;entryDx=0;entryDy=0;" edge="1" parent="1" source="csRdMIbpgOP2QXGig-NB-4" target="csRdMIbpgOP2QXGig-NB-5">
          <mxGeometry relative="1" as="geometry" />
        </mxCell>
        <mxCell id="csRdMIbpgOP2QXGig-NB-4" value="Baca Dataset" style="shape=parallelogram;perimeter=parallelogramPerimeter;whiteSpace=wrap;html=1;fixedSize=1;fontFamily=Times New Roman;" vertex="1" parent="1">
          <mxGeometry x="172.5" y="140" width="150" height="60" as="geometry" />
        </mxCell>
        <mxCell id="csRdMIbpgOP2QXGig-NB-12" value="" style="edgeStyle=orthogonalEdgeStyle;rounded=0;orthogonalLoop=1;jettySize=auto;html=1;fontFamily=Times New Roman;" edge="1" parent="1" source="csRdMIbpgOP2QXGig-NB-5" target="csRdMIbpgOP2QXGig-NB-11">
          <mxGeometry relative="1" as="geometry" />
        </mxCell>
        <mxCell id="csRdMIbpgOP2QXGig-NB-5" value="" style="whiteSpace=wrap;html=1;fontFamily=Times New Roman;" vertex="1" parent="1">
          <mxGeometry x="172.5" y="260" width="150" height="210" as="geometry" />
        </mxCell>
        <mxCell id="csRdMIbpgOP2QXGig-NB-7" value="Data Preprocessing" style="text;html=1;strokeColor=none;fillColor=none;align=center;verticalAlign=middle;whiteSpace=wrap;rounded=0;fontFamily=Times New Roman;" vertex="1" parent="1">
          <mxGeometry x="187.5" y="270" width="125" height="30" as="geometry" />
        </mxCell>
        <mxCell id="csRdMIbpgOP2QXGig-NB-8" value="Normalisasi" style="rounded=0;whiteSpace=wrap;html=1;fontFamily=Times New Roman;" vertex="1" parent="1">
          <mxGeometry x="190" y="360" width="120" height="35" as="geometry" />
        </mxCell>
        <mxCell id="csRdMIbpgOP2QXGig-NB-9" value="One-Hot-Encoding" style="rounded=0;whiteSpace=wrap;html=1;fontFamily=Times New Roman;" vertex="1" parent="1">
          <mxGeometry x="190" y="410" width="120" height="40" as="geometry" />
        </mxCell>
        <mxCell id="csRdMIbpgOP2QXGig-NB-10" value="Resize" style="rounded=0;whiteSpace=wrap;html=1;fontFamily=Times New Roman;" vertex="1" parent="1">
          <mxGeometry x="190" y="300" width="120" height="35" as="geometry" />
        </mxCell>
        <mxCell id="csRdMIbpgOP2QXGig-NB-55" value="" style="edgeStyle=orthogonalEdgeStyle;rounded=0;orthogonalLoop=1;jettySize=auto;html=1;" edge="1" parent="1" source="csRdMIbpgOP2QXGig-NB-11" target="csRdMIbpgOP2QXGig-NB-54">
          <mxGeometry relative="1" as="geometry" />
        </mxCell>
        <mxCell id="csRdMIbpgOP2QXGig-NB-11" value="Data Augmentasi" style="whiteSpace=wrap;html=1;fontFamily=Times New Roman;" vertex="1" parent="1">
          <mxGeometry x="175" y="500" width="150" height="60" as="geometry" />
        </mxCell>
        <mxCell id="csRdMIbpgOP2QXGig-NB-17" style="edgeStyle=orthogonalEdgeStyle;rounded=0;orthogonalLoop=1;jettySize=auto;html=1;entryX=0.5;entryY=0;entryDx=0;entryDy=0;" edge="1" parent="1" source="csRdMIbpgOP2QXGig-NB-14" target="csRdMIbpgOP2QXGig-NB-16">
          <mxGeometry relative="1" as="geometry" />
        </mxCell>
        <mxCell id="csRdMIbpgOP2QXGig-NB-14" value="K-Fold Cross Validation" style="whiteSpace=wrap;html=1;fontFamily=Times New Roman;" vertex="1" parent="1">
          <mxGeometry x="177.5" y="685" width="145" height="60" as="geometry" />
        </mxCell>
        <mxCell id="csRdMIbpgOP2QXGig-NB-19" value="" style="edgeStyle=orthogonalEdgeStyle;rounded=0;orthogonalLoop=1;jettySize=auto;html=1;" edge="1" parent="1" source="csRdMIbpgOP2QXGig-NB-16" target="csRdMIbpgOP2QXGig-NB-18">
          <mxGeometry relative="1" as="geometry" />
        </mxCell>
        <mxCell id="csRdMIbpgOP2QXGig-NB-16" value="Latih Model CNN" style="whiteSpace=wrap;html=1;fontFamily=Times New Roman;" vertex="1" parent="1">
          <mxGeometry x="177.5" y="775" width="145" height="60" as="geometry" />
        </mxCell>
        <mxCell id="csRdMIbpgOP2QXGig-NB-21" value="" style="edgeStyle=orthogonalEdgeStyle;rounded=0;orthogonalLoop=1;jettySize=auto;html=1;" edge="1" parent="1" source="csRdMIbpgOP2QXGig-NB-18" target="csRdMIbpgOP2QXGig-NB-20">
          <mxGeometry relative="1" as="geometry" />
        </mxCell>
        <mxCell id="csRdMIbpgOP2QXGig-NB-18" value="Evaluasi Model" style="shape=parallelogram;perimeter=parallelogramPerimeter;whiteSpace=wrap;html=1;fixedSize=1;fontFamily=Times New Roman;" vertex="1" parent="1">
          <mxGeometry x="175" y="865" width="150" height="60" as="geometry" />
        </mxCell>
        <mxCell id="csRdMIbpgOP2QXGig-NB-57" style="edgeStyle=orthogonalEdgeStyle;rounded=0;orthogonalLoop=1;jettySize=auto;html=1;entryX=0;entryY=0.5;entryDx=0;entryDy=0;" edge="1" parent="1" source="csRdMIbpgOP2QXGig-NB-20" target="csRdMIbpgOP2QXGig-NB-24">
          <mxGeometry relative="1" as="geometry">
            <Array as="points">
              <mxPoint x="430" y="1005" />
              <mxPoint x="430" y="80" />
            </Array>
          </mxGeometry>
        </mxCell>
        <mxCell id="csRdMIbpgOP2QXGig-NB-20" value="Model CNN" style="shape=cylinder3;whiteSpace=wrap;html=1;boundedLbl=1;backgroundOutline=1;size=15;" vertex="1" parent="1">
          <mxGeometry x="177.5" y="965" width="145" height="80" as="geometry" />
        </mxCell>
        <mxCell id="csRdMIbpgOP2QXGig-NB-22" value="" style="endArrow=none;dashed=1;html=1;dashPattern=1 3;strokeWidth=2;rounded=0;" edge="1" parent="1">
          <mxGeometry width="50" height="50" relative="1" as="geometry">
            <mxPoint x="400" y="1070" as="sourcePoint" />
            <mxPoint x="400" y="40" as="targetPoint" />
          </mxGeometry>
        </mxCell>
        <mxCell id="csRdMIbpgOP2QXGig-NB-26" value="" style="edgeStyle=orthogonalEdgeStyle;rounded=0;orthogonalLoop=1;jettySize=auto;html=1;" edge="1" parent="1" source="csRdMIbpgOP2QXGig-NB-24">
          <mxGeometry relative="1" as="geometry">
            <mxPoint x="560" y="160" as="targetPoint" />
          </mxGeometry>
        </mxCell>
        <mxCell id="csRdMIbpgOP2QXGig-NB-24" value="Mulai" style="rounded=1;whiteSpace=wrap;html=1;fontFamily=Times New Roman;" vertex="1" parent="1">
          <mxGeometry x="500" y="50" width="120" height="60" as="geometry" />
        </mxCell>
        <mxCell id="csRdMIbpgOP2QXGig-NB-45" value="" style="edgeStyle=orthogonalEdgeStyle;rounded=0;orthogonalLoop=1;jettySize=auto;html=1;" edge="1" parent="1" source="csRdMIbpgOP2QXGig-NB-27" target="csRdMIbpgOP2QXGig-NB-44">
          <mxGeometry relative="1" as="geometry" />
        </mxCell>
        <mxCell id="csRdMIbpgOP2QXGig-NB-27" value="Baca Dataset" style="shape=parallelogram;perimeter=parallelogramPerimeter;whiteSpace=wrap;html=1;fixedSize=1;" vertex="1" parent="1">
          <mxGeometry x="490" y="160" width="140" height="60" as="geometry" />
        </mxCell>
        <mxCell id="csRdMIbpgOP2QXGig-NB-28" value="Data Preprocessing" style="text;html=1;strokeColor=none;fillColor=none;align=center;verticalAlign=middle;whiteSpace=wrap;rounded=0;fontFamily=Times New Roman;" vertex="1" parent="1">
          <mxGeometry x="497.25" y="335" width="125" height="30" as="geometry" />
        </mxCell>
        <mxCell id="csRdMIbpgOP2QXGig-NB-32" value="" style="whiteSpace=wrap;html=1;fontFamily=Times New Roman;verticalAlign=middle;" vertex="1" parent="1">
          <mxGeometry x="484.75" y="335" width="150" height="210" as="geometry" />
        </mxCell>
        <mxCell id="csRdMIbpgOP2QXGig-NB-29" value="Normalisasi" style="rounded=0;whiteSpace=wrap;html=1;fontFamily=Times New Roman;" vertex="1" parent="1">
          <mxGeometry x="500" y="422.5" width="120" height="35" as="geometry" />
        </mxCell>
        <mxCell id="csRdMIbpgOP2QXGig-NB-30" value="Resize" style="rounded=0;whiteSpace=wrap;html=1;fontFamily=Times New Roman;" vertex="1" parent="1">
          <mxGeometry x="499.75" y="365" width="120" height="35" as="geometry" />
        </mxCell>
        <mxCell id="csRdMIbpgOP2QXGig-NB-31" value="One-Hot-Encoding" style="rounded=0;whiteSpace=wrap;html=1;fontFamily=Times New Roman;" vertex="1" parent="1">
          <mxGeometry x="500" y="475" width="120" height="40" as="geometry" />
        </mxCell>
        <mxCell id="csRdMIbpgOP2QXGig-NB-39" value="" style="edgeStyle=orthogonalEdgeStyle;rounded=0;orthogonalLoop=1;jettySize=auto;html=1;" edge="1" parent="1" source="csRdMIbpgOP2QXGig-NB-36" target="csRdMIbpgOP2QXGig-NB-38">
          <mxGeometry relative="1" as="geometry" />
        </mxCell>
        <mxCell id="csRdMIbpgOP2QXGig-NB-36" value="Deteksi Penggunaan&lt;br&gt;Masker" style="whiteSpace=wrap;html=1;fontFamily=Times New Roman;" vertex="1" parent="1">
          <mxGeometry x="500" y="575" width="120" height="60" as="geometry" />
        </mxCell>
        <mxCell id="csRdMIbpgOP2QXGig-NB-41" value="" style="edgeStyle=orthogonalEdgeStyle;rounded=0;orthogonalLoop=1;jettySize=auto;html=1;" edge="1" parent="1" source="csRdMIbpgOP2QXGig-NB-38" target="csRdMIbpgOP2QXGig-NB-40">
          <mxGeometry relative="1" as="geometry" />
        </mxCell>
        <mxCell id="csRdMIbpgOP2QXGig-NB-38" value="Akurasi" style="shape=parallelogram;perimeter=parallelogramPerimeter;whiteSpace=wrap;html=1;fixedSize=1;fontFamily=Times New Roman;" vertex="1" parent="1">
          <mxGeometry x="489.75" y="665" width="140" height="60" as="geometry" />
        </mxCell>
        <mxCell id="csRdMIbpgOP2QXGig-NB-40" value="Selesai" style="rounded=1;whiteSpace=wrap;html=1;fontFamily=Times New Roman;" vertex="1" parent="1">
          <mxGeometry x="499.75" y="765" width="120" height="60" as="geometry" />
        </mxCell>
        <mxCell id="csRdMIbpgOP2QXGig-NB-42" value="Data Preprocessing" style="text;html=1;strokeColor=none;fillColor=none;align=center;verticalAlign=middle;whiteSpace=wrap;rounded=0;fontFamily=Times New Roman;" vertex="1" parent="1">
          <mxGeometry x="494.75" y="335" width="125" height="30" as="geometry" />
        </mxCell>
        <mxCell id="csRdMIbpgOP2QXGig-NB-44" value="MTCNN" style="rounded=0;whiteSpace=wrap;html=1;" vertex="1" parent="1">
          <mxGeometry x="500" y="250" width="120" height="60" as="geometry" />
        </mxCell>
        <mxCell id="csRdMIbpgOP2QXGig-NB-50" value="" style="endArrow=classic;html=1;rounded=0;exitX=0.5;exitY=1;exitDx=0;exitDy=0;" edge="1" parent="1" source="csRdMIbpgOP2QXGig-NB-44">
          <mxGeometry width="50" height="50" relative="1" as="geometry">
            <mxPoint x="700" y="330" as="sourcePoint" />
            <mxPoint x="560" y="340" as="targetPoint" />
          </mxGeometry>
        </mxCell>
        <mxCell id="csRdMIbpgOP2QXGig-NB-51" value="" style="endArrow=classic;html=1;rounded=0;exitX=0.5;exitY=1;exitDx=0;exitDy=0;entryX=0.5;entryY=0;entryDx=0;entryDy=0;" edge="1" parent="1" source="csRdMIbpgOP2QXGig-NB-32" target="csRdMIbpgOP2QXGig-NB-36">
          <mxGeometry width="50" height="50" relative="1" as="geometry">
            <mxPoint x="670" y="600" as="sourcePoint" />
            <mxPoint x="720" y="550" as="targetPoint" />
          </mxGeometry>
        </mxCell>
        <mxCell id="csRdMIbpgOP2QXGig-NB-56" value="" style="edgeStyle=orthogonalEdgeStyle;rounded=0;orthogonalLoop=1;jettySize=auto;html=1;" edge="1" parent="1" source="csRdMIbpgOP2QXGig-NB-54" target="csRdMIbpgOP2QXGig-NB-14">
          <mxGeometry relative="1" as="geometry" />
        </mxCell>
        <mxCell id="csRdMIbpgOP2QXGig-NB-54" value="VGG16net" style="whiteSpace=wrap;html=1;fontFamily=Times New Roman;" vertex="1" parent="1">
          <mxGeometry x="177.5" y="590" width="145" height="60" as="geometry" />
        </mxCell>
      </root>
    </mxGraphModel>
  </diagram>
</mxfile>
